<svg xmlns="http://www.w3.org/2000/svg" xml:space="preserve" id="Layer_1" x="0" y="0" version="1.1" viewBox="0 0 78.89 122.88"><path d="m9.59 64.63.67-1.5c1.56-3.51 1.11-2.38 4.93-.7 15.34 6.77 31.2 7.28 47.99.22 3.43-1.44 3.8-2.98 5.26-.04l.6 1.21c1.21 2.45 1.56 2.01-.31 4.08a23.6 23.6 0 0 1-4.82 4.1c-5.1 1.1-10.21 1.44-15.31.74l-.73-1.66c-.67-1.52-.48-1.07-2.23-.79-4.07.66-8.15.73-12.22.02-2.27-.39-1.81-.89-2.7 1.21l-.66 1.55c-5.09-.08-10.04-.42-14.77-1.21-1.84-1.27-3.56-2.66-5.1-4.23-1.5-1.53-1.43-1.12-.6-3M1.48 43.66c.42-10.28 1.43-18.83 3.19-25.19 1.25-4.51 1.32-5.27 4.96-8C14.61 6.75 19.93 3.81 25.74 2c10.55-3.29 22.75-2.44 32.9 1.84 2.73 1.16 5.35 2.6 7.86 4.34 4.59 3.19 5.43 3.67 7.08 8.78l.63 1.95c.74 2.29.81 3.86 1.06 6.24l2.05 19.38c2.26 2.52 1.41 5.11 1.41 8.62v11.87c0 5.74.66 5.04-2.51 9.79-.7 16.02-7.23 34.06-24.24 45.67-3.89 2.66-3.53 2.4-8.12 2.4H33.8c-4.37 0-4.76-.72-8.36-3.43-5.98-4.51-10.73-10.05-14.45-16.47-4.81-8.3-5.73-13.22-7.49-22.3l-.69-6.04C-.24 70.17.08 71.21.08 65.8V52.07c.01-4.04-.6-4.91 1.4-8.41M50.1 29.02l2.53-18.14c5.45.92 10.5 2.28 14.67 5.74 5.21 4.33 5.05 5.72 4.82 11.77l-1.05 26.79 1.77 5.8c.79 2.6 1.55 4.37 1.53 7.13-.02 2.32-.49 4.49-1.46 6.47-3.54 9.07-11.93 18.02-12.76 29.45l-3.5 3.93-3.32-3.15H25.66l-3 3.06-3.76-3.76C18.33 92.55 7.84 81.08 5.62 73.19c-1.34-3.35-1.15-6.81-.17-10.31l2.36-8.04-1.04-27.19c-.18-4.69-.83-5.34 2.6-9.02 4.19-4.49 10.27-6.65 17.12-7.84l2.03 15.59 1.29 9.93c.18 1.79.71 3.22 1.58 4.27.8.97 1.91 1.61 3.31 1.93h9.7c1.45-.27 2.54-.94 3.3-1.97 1.59-2.11 2.01-8.67 2.4-11.52m-32.82 80.33 1.25-3.41 4.72 4.92 2.21-1.91c2.8-2.43 2.05-2 5.78-2h15.82c4.04 0 3.5-.58 6.59 1.94l2.24 1.82 4.57-5.27 1.66 4.17-8.69 7.88-1.88-1.19c-2.91-1.84-2.67-1.42-6.13-1.42H33.07c-3.61 0-3.2-.32-6.3 1.5l-1.81 1.06zm49.67-42.8-1.01-2.29c-5 2.44-10.73 3.94-16.91 4.88-.91.14-.84-.02-.38.78l.9 1.56c8.41-.15 14.93-1.37 17.4-4.93m-55.02-.07 1.01-2.29c4.75 2.32 10.17 3.79 16 4.74 1.64.26 1.88-.11 1.12 1.2l-.74 1.28c-8.41-.14-14.92-1.37-17.39-4.93" style="fill-rule:evenodd;clip-rule:evenodd"/></svg>